<svg width="22" height="15" viewBox="0 0 22 15" fill="none" xmlns="http://www.w3.org/2000/svg">
<path fill-rule="evenodd" clip-rule="evenodd" d="M16.9685 5H19.2965V7.5H16.9685V5ZM16.9685 9.99997H19.2965V12.5H16.9685V9.99997ZM12.312 5H14.6401V7.5H12.312V5ZM12.312 9.99997H14.6401V12.5H12.312V9.99997ZM7.65601 5H9.98404V7.5H7.65601V5ZM7.65601 9.99997H9.98404V12.5H7.65601V9.99997ZM3 5H5.32804V7.5H3V5ZM3 9.99997H5.32804V12.5H3V9.99997ZM19.7083 0H16.75V1.875C16.75 2.65406 16.1331 3.28125 15.375 3.28125C14.6169 3.28125 14 2.65406 14 1.875V0H8V1.875C8 2.65406 7.38308 3.28125 6.625 3.28125C5.86692 3.28125 5.25 2.65406 5.25 1.875V0H2.29167C1.0285 0 0 1.05 0 2.34375V12.6562C0 13.95 1.0285 15 2.29167 15H19.7083C20.9724 15 22 13.95 22 12.6562V2.34375C22 1.05 20.9724 0 19.7083 0Z" fill="white"/>
</svg>
