<svg width="18" height="20" viewBox="0 0 18 20" fill="none" xmlns="http://www.w3.org/2000/svg">
<rect width="18" height="20" fill="black" fill-opacity="0"/>
<path fill-rule="evenodd" clip-rule="evenodd" d="M14.9394 3.99704C14.5974 3.69697 14.0785 3.72948 13.7783 4.07122C13.4774 4.41297 13.5111 4.94726 13.8515 5.24733C15.4435 6.67267 16.3554 8.71482 16.3554 10.8645C16.3554 14.9821 13.0572 18.3329 9 18.3329C4.94445 18.3329 1.64459 14.9821 1.64459 10.8645C1.64459 7.34783 4.01937 4.39713 7.26085 3.60528L6.71074 4.42964C6.45747 4.81307 6.55861 5.32985 6.93604 5.58908C7.07583 5.68827 7.23454 5.72995 7.39242 5.72995C7.6572 5.72995 7.91786 5.60492 8.07656 5.36403L9.68333 2.92929C9.8042 2.74674 9.84943 2.52169 9.80585 2.30414C9.76473 2.08742 9.63892 1.89654 9.45802 1.77151L7.04705 0.13779C6.66798 -0.113103 6.15898 -0.0130791 5.90653 0.370345C5.65491 0.754603 5.75605 1.27139 6.13349 1.52895L6.82092 1.99656C2.88132 2.98013 0 6.58849 0 10.8645C0 15.9074 4.03746 20 9 20C13.9625 20 18 15.9074 18 10.8645C18 8.23888 16.8841 5.73828 14.9394 3.99704Z" fill="white"/>
<path fill-rule="evenodd" clip-rule="evenodd" d="M9.58135 10.381V10.3727C9.53448 10.331 9.47856 10.3069 9.42593 10.2727C9.38564 10.2485 9.35193 10.2143 9.30999 10.1985C9.25243 10.1735 9.19076 10.1643 9.13155 10.156C9.08633 10.156 9.04521 10.1318 8.99998 10.1318C8.95558 10.1318 8.91282 10.156 8.87006 10.156C8.80921 10.1643 8.74754 10.1735 8.6908 10.1985C8.64887 10.2143 8.61433 10.2485 8.57568 10.2727C8.52305 10.3069 8.46549 10.331 8.41945 10.3727L8.41862 10.381L3.99715 14.8654C3.67564 15.1914 3.67728 15.724 3.9988 16.0499C4.15914 16.2074 4.36965 16.2908 4.57934 16.2908C4.79067 16.2908 5.00117 16.2074 5.16152 16.0499L8.99998 12.1481L11.1133 14.2911C11.2744 14.4578 11.4841 14.5404 11.6963 14.5404C11.906 14.5404 12.1165 14.4578 12.2768 14.2986C12.5983 13.9736 12.5992 13.4401 12.2776 13.115L9.58299 10.381H9.58135Z" fill="white"/>
</svg>
