<svg width="21" height="19" viewBox="0 0 21 19" fill="none" xmlns="http://www.w3.org/2000/svg">
<rect width="21" height="19" fill="black" fill-opacity="0"/>
<path fill-rule="evenodd" clip-rule="evenodd" d="M0.313222 7.91667C0.140323 7.91667 0 7.7767 0 7.6V2.93867C0 1.4307 1.35186 0 2.78203 0H6.6973C8.00657 0 9.12164 1.6207 9.36094 2.5327H15.6536C17.4145 2.5327 18.7933 3.81837 18.7933 5.46503V6.3327C18.7933 6.51003 18.653 6.65 18.4801 6.65C18.3072 6.65 18.1669 6.51003 18.1669 6.3327V5.46503C18.1669 4.17303 17.0631 3.16667 15.6536 3.16667H9.09595C8.92243 3.16667 8.78273 3.0267 8.78273 2.85C8.78273 2.35537 7.77228 0.6327 6.6973 0.6327H2.78203C1.69453 0.6327 0.626443 1.7727 0.626443 2.93867V7.6C0.626443 7.7767 0.48612 7.91667 0.313222 7.91667Z" fill="#4E5E6D"/>
<path fill-rule="evenodd" clip-rule="evenodd" d="M4.92139 18.3667H16.0451C17.1251 18.3667 17.6156 17.5433 18.0986 16.1247L20.2974 8.96737C20.4703 8.51834 20.3068 8.13771 20.1408 7.89071C19.7718 7.34667 19.0539 6.96667 18.3943 6.96667H9.78071C8.45202 6.96667 7.90701 8.46071 7.73412 9.10671L5.8291 16.8904C5.68252 17.4857 5.35489 17.9924 4.92139 18.3667ZM16.0451 19H2.71688C1.26917 19 0 17.6763 0 16.1684V7.6C0 7.42267 0.140323 7.2827 0.313222 7.2827C0.48612 7.2827 0.626443 7.42267 0.626443 7.6V16.1684C0.626443 17.3147 1.62249 18.3667 2.71688 18.3667H3.26126C4.16334 18.3667 4.98774 17.682 5.22078 16.7384L7.12767 8.94837C7.57432 7.2827 8.54093 6.3327 9.78066 6.3327H18.3943C19.2619 6.3327 20.1715 6.81404 20.6576 7.53604C21.0128 8.0617 21.0948 8.64437 20.8887 9.17637L18.6937 16.321C18.2514 17.6257 17.6488 19 16.0451 19Z" fill="#4E5E6D"/>
</svg>
