<svg width="20" height="19" viewBox="0 0 20 19" fill="none" xmlns="http://www.w3.org/2000/svg">
<rect width="20.0001" height="19" fill="black" fill-opacity="0"/>
<path fill-rule="evenodd" clip-rule="evenodd" d="M14.4 4.75H8.8456C8.5816 3.72083 7.388 2.375 6.0496 2.375H2.8496C1.3584 2.375 0 3.81504 0 5.39837V16.2284C0 17.7887 1.72 19 3.2 19H14.8C16.3432 19 17.6 17.7571 17.6 16.2284V7.91587C17.6 6.17421 16.164 4.75 14.4 4.75Z" fill="#4E5E6D"/>
<path fill-rule="evenodd" clip-rule="evenodd" d="M16.8001 2.375H11.2457C10.9817 1.34583 9.78813 0 8.44973 0H5.24973C4.23773 0 3.29693 0.672125 2.79053 1.59046C2.81053 1.59046 2.82973 1.58254 2.84973 1.58254H6.04973C7.60413 1.58254 8.85933 2.82546 9.40013 3.95754H14.4001C16.6057 3.95754 18.4001 5.73879 18.4001 7.91587V16.2284C18.4001 16.2767 18.3889 16.3155 18.3873 16.3558C19.3369 15.9125 20.0001 14.9617 20.0001 13.8534V5.54087C20.0001 3.79921 18.5641 2.375 16.8001 2.375Z" fill="#4E5E6D"/>
</svg>
